PathFileType	4	(X/Y/Z)	1_2_rein_113_p1_0-477.trc
DataRate	CameraRate	NumFrames	NumMarkers	Units	OrigDataRate	OrigDataStartFrame	OrigNumFrames
60.0	60.0	5	27	m	60.0	239	478
Frame#	Time	RHip			RKnee			RAnkle			RBigToe			RSmallToe			RHeel			LHip			LKnee			LAnkle			LBigToe			LSmallToe			LHeel			Neck			Head			Nose			RShoulder			RElbow			RWrist			RThumb			RIndex			RPinky			LShoulder			LElbow			LWrist			LThumb			LIndex			LPinky			
		X1	Y1	Z1	X2	Y2	Z2	X3	Y3	Z3	X4	Y4	Z4	X5	Y5	Z5	X6	Y6	Z6	X7	Y7	Z7	X8	Y8	Z8	X9	Y9	Z9	X10	Y10	Z10	X11	Y11	Z11	X12	Y12	Z12	X13	Y13	Z13	X14	Y14	Z14	X15	Y15	Z15	X16	Y16	Z16	X17	Y17	Z17	X18	Y18	Z18	X19	Y19	Z19	X20	Y20	Z20	X21	Y21	Z21	X22	Y22	Z22	X23	Y23	Z23	X24	Y24	Z24	X25	Y25	Z25	X26	Y26	Z26	X27	Y27	Z27	
239	3.9833333333333334	0.3905073422555535	0.2000238327011346	1.0873246966945822	0.38095799795548646	0.26814402728676706	1.5252159407409074	0.3454696896685725	0.4120671486182938	1.9723877104426701	0.3319108061159264	0.1764212179019344	1.9850722782829486	0.39119893589579446	0.22132111864692908	1.9965987664853715	0.33448203167361573	0.47370609682193476	2.0286641911547294	0.18086842213707333	0.21366286509854382	1.0858956558266104	0.17586192416979787	0.2849789697935433	1.5124636530001778	0.19545076969177483	0.37811342624431493	1.9373872197253237	0.17429095116688528	0.18935693250894706	1.990210375264714	0.125780565605508	0.22393826281383702	1.975753510097854	0.21330086938043674	0.4556277845810345	2.0064559729378715	0.2946044808297334	0.1678032677369365	0.5505072466906131	0.24533458241693182	-0.10052186196906124	0.3195106334247247	0.2767170185503161	-0.003717295130438883	0.5138164120304143	0.47179114626039526	0.1387527190748425	0.5496809552480831	0.5570911771882805	0.20372969296371407	0.8015191727631238	0.47728287992247526	0.009596387723427923	0.8872855563108636	0.40508228484161485	-0.07901707585113371	0.9035125567703597	0.40844387020786177	-0.09449687555797123	0.9261304385076952	0.41240967594724903	-0.07606236605829492	0.9593831098648652	0.12473887532414475	0.16979262222775698	0.5481217138134384	0.04597355970907578	0.22924595985483712	0.7978231510165689	0.20940891449033622	0.05800549936989081	0.8288505287966765	0.30757913981915197	-0.022466443473428573	0.8155536100292866	0.30680903884331556	-0.0566382951255305	0.829586220456972	0.2820690829725176	0.028204367243066405	0.8819704320953113
240	4.0	0.39044136019238435	0.20002420012313168	1.0871410101712906	0.38190845424685343	0.2695136625540682	1.5298712008941484	0.34559151470992516	0.4122019849267366	1.9724755355987798	0.33616219176995743	0.1885141110512804	1.9912042284412574	0.3912609501549813	0.22160387882148527	1.9967903312683695	0.33503910989131924	0.4715744927442802	2.0318012032937522	0.1811195712557494	0.2135218927632748	1.085753246403951	0.1733331537052522	0.27480973862186686	1.5136637305279486	0.19632980481699244	0.380321409950472	1.9421882055925177	0.17898245500094662	0.17549037892939745	1.9817482253259764	0.1257611371373377	0.22368970781795677	1.9755488804025174	0.2130390613958059	0.4554199171750035	2.0059802256442802	0.29523928102722935	0.17995876157856097	0.5545994571061107	0.24632923345153807	-0.1025233673297225	0.32274551901084764	0.2746071756285167	-0.014124439443597576	0.5173259285851924	0.47126180476748003	0.14128082306588433	0.5466226016053507	0.5567679904830047	0.20115099957163537	0.8011096178389208	0.4743251077329476	0.02131741657749872	0.8900710661302772	0.4053332860550252	-0.07619716157232284	0.9042617829902085	0.40836517865302374	-0.09432368860100496	0.9262621442591767	0.41616651283542916	-0.06806702618666845	0.9639057048915751	0.12478899206632346	0.1698631829081373	0.5481078649646517	0.0500760153601802	0.23153781664461298	0.7975343265997731	0.21251458022377687	0.06842917926701643	0.8296951225593108	0.31655233387051473	0.010286040829703438	0.8219590541031203	0.3096205980304649	-0.044879755569752385	0.8276545492128194	0.29621471034723595	0.06028099964450125	0.8853213385702975
241	4.016666666666667	0.39052139607125175	0.2001458538374595	1.0873082957834037	0.38143242217326173	0.2655728835830378	1.5286538769493254	0.3456731569668869	0.41251065285535676	1.972457805423552	0.3359174417588075	0.18842579071952406	1.9906461443104317	0.39498162570901263	0.23279527601929617	2.002092778497805	0.33529564606403184	0.4725809882733856	2.031852292281397	0.18528539937258212	0.20090461350219108	1.0823101842281473	0.17380042105842297	0.27265742641739005	1.5169374909229154	0.19637029500199718	0.380494360082547	1.9422825241982689	0.17896911876233942	0.17566102571973827	1.9818750614755822	0.12576551055120946	0.2238108682701173	1.9757222998995705	0.21315932557992137	0.45580742230615373	2.0063669321822712	0.2912170875398872	0.17882833379008348	0.5547768510886226	0.2469206110156386	-0.12096021198969382	0.3230767266062941	0.27472873219436017	-0.01315672502015616	0.5203461224629269	0.47122794631956727	0.14141109166094173	0.5465993836801798	0.5568189707780938	0.20110390743937934	0.8011441627133687	0.47348311871389887	-0.00012523570728602008	0.8857049240921397	0.4049853618216438	-0.07931398007848275	0.9039559293751563	0.4083418632373204	-0.0946171750996438	0.9261096282019158	0.4123604722845027	-0.07576033534757004	0.9586513947846264	0.12475783780334697	0.17007788598984425	0.5482415704975836	0.05215909057937699	0.22313971639620064	0.797446450645165	0.22040072275668673	0.0594839970917475	0.8238029981699009	0.3197427834995128	0.0007661618193954634	0.815561894984076	0.3128779859717134	-0.03511034828976169	0.8293929370178219	0.30604649772957193	0.06810509765026113	0.8856850286594287
242	4.033333333333333	0.3896613542877189	0.19959287021458377	1.0799074041991101	0.379743368198579	0.261248274198662	1.5189356257273372	0.3455797328702176	0.4120521945032134	1.9722908261339522	0.3320768825726996	0.17669691684637323	1.9854096149228426	0.39111317963621506	0.2203808339820554	2.000819770687555	0.33378848158322233	0.4695650074048744	2.026055402436429	0.18514652447348334	0.20068915069389792	1.0821576792847756	0.1729600481121422	0.27053991594328	1.5115862144837913	0.19544831049744057	0.37783919953087836	1.9371911994978754	0.1788141838167551	0.17505488200774139	1.9817526621607662	0.1257615496391064	0.22373393959277377	1.9755898778292438	0.21347530389312822	0.45727773143904754	2.0024004954133825	0.29119643933750844	0.17900941497822562	0.5548843280429496	0.24342106450318649	-0.11095411330373105	0.3231845310957082	0.2776492564392512	-0.0034311092020798367	0.5204622317342033	0.47120190173993054	0.14143242355370667	0.5465716163684871	0.5568553506091658	0.20111211768155532	0.801168871385734	0.4735807599204832	-2.2640895939732065e-05	0.8858261363008646	0.4055536099286477	-0.07774255899506767	0.9086034449634178	0.4084251795329417	-0.09455353205569395	0.9261988104016914	0.4124757675476297	-0.07599391174218534	0.9587454852590873	0.12531132483975935	0.16862333087965678	0.5509618486030057	0.052660360562361626	0.22040331172949365	0.8001397679827222	0.22421903807749066	0.04834920905093033	0.8178627476295985	0.3223368744803646	0.01006869148090215	0.8098763239981475	0.3184502086371769	-0.03652192968447638	0.8245819736176303	0.3092901215632438	0.05424213924233494	0.8816857452459663
243	4.05	0.3903601954622395	0.20146308543844524	1.0841031924826596	0.38057144016570155	0.263698133303609	1.5240194399830331	0.3456005341370454	0.41218634927152203	1.9723656435219217	0.3318076617030779	0.1768554216817432	1.9851324710391738	0.3912484431447851	0.2219150545473634	1.996861553097049	0.33513002093183114	0.47186612385518745	2.0317696762076336	0.1857741044603837	0.20222549606065798	1.0869602928868123	0.17249570485140328	0.27227341326179566	1.508308711825431	0.19550808266166647	0.37757493348989196	1.9370636140081268	0.17904352238982327	0.17543026258626218	1.9814151620382743	0.12570494096636162	0.22361105593549133	1.9751858523149304	0.21045219627249612	0.4447394044354786	1.9962651826516256	0.2952075385524828	0.1805459556620331	0.5547688570949159	0.24630334346733013	-0.10257674781410761	0.3227372939196653	0.2748209981466767	-0.014207298319784834	0.517374903167546	0.4706371864448018	0.14348139959823414	0.5430972889864282	0.5568300796413649	0.2010419914490249	0.8012079286856656	0.4734995434840389	-0.00027091549887954953	0.8855082965644878	0.40476597293543776	-0.07760904570692159	0.9012795191357185	0.4082315506951765	-0.09358751782689002	0.9232063941932175	0.41262253304196655	-0.07589694136090755	0.9579184502713429	0.12035545194181067	0.18250690131137212	0.5494645916045595	0.053041694291838824	0.22267470526928673	0.8044609649334763	0.22457741490249705	0.04724932961634305	0.8212951696082377	0.3221146652157441	0.01127270285872847	0.8059444574011707	0.3156950855857929	-0.04494933727460783	0.8232930465955305	0.3130640263906983	0.04113414699228002	0.8785323591110205
